<svg width="20" height="15" viewBox="0 0 20 15" fill="none" xmlns="http://www.w3.org/2000/svg">
<path fill-rule="evenodd" clip-rule="evenodd" d="M10.0001 0.618164C7.22586 0.618164 4.79699 2.27937 3.12801 3.81649C2.28012 4.59739 1.59626 5.37595 1.12442 5.95872C0.888042 6.25068 0.703679 6.49498 0.577357 6.66785C0.514168 6.75432 0.46542 6.82303 0.431866 6.87102C0.415087 6.89502 0.402099 6.91385 0.392998 6.92713L0.382269 6.94287L0.379111 6.94754L0.105469 7.38136L0.378087 7.78727L0.379111 7.78879L0.382269 7.79346L0.392998 7.80919C0.402099 7.82248 0.415087 7.84131 0.431866 7.86531C0.46542 7.9133 0.514168 7.98201 0.577357 8.06848C0.703679 8.24135 0.888042 8.48565 1.12442 8.77761C1.59626 9.36037 2.28012 10.1389 3.12801 10.9198C4.79699 12.457 7.22586 14.1182 10.0001 14.1182C12.7743 14.1182 15.2031 12.457 16.8721 10.9198C17.72 10.1389 18.4039 9.36037 18.8757 8.77761C19.1121 8.48565 19.2964 8.24135 19.4228 8.06848C19.4859 7.98201 19.5347 7.9133 19.5682 7.86531C19.585 7.84131 19.598 7.82248 19.6071 7.80919L19.6178 7.79346L19.621 7.78879L19.6224 7.78672L19.9035 7.36816L19.622 6.94906L19.621 6.94754L19.6178 6.94287L19.6071 6.92713C19.598 6.91385 19.585 6.89502 19.5682 6.87102C19.5347 6.82303 19.4859 6.75432 19.4228 6.66785C19.2964 6.49498 19.1121 6.25068 18.8757 5.95872C18.4039 5.37595 17.72 4.59739 16.8721 3.81649C15.2031 2.27937 12.7743 0.618164 10.0001 0.618164ZM2.29022 7.83372C2.14684 7.65663 2.02478 7.49928 1.92575 7.36816C2.02478 7.23705 2.14684 7.0797 2.29022 6.90261C2.72924 6.36037 3.36339 5.63894 4.14419 4.91984C5.73256 3.45696 7.80369 2.11816 10.0001 2.11816C12.1964 2.11816 14.2676 3.45696 15.8559 4.91984C16.6367 5.63894 17.2709 6.36037 17.7099 6.90261C17.8533 7.0797 17.9753 7.23705 18.0744 7.36816C17.9753 7.49928 17.8533 7.65663 17.7099 7.83372C17.2709 8.37595 16.6367 9.09739 15.8559 9.81649C14.2676 11.2794 12.1964 12.6182 10.0001 12.6182C7.80369 12.6182 5.73256 11.2794 4.14419 9.81649C3.36339 9.09739 2.72924 8.37595 2.29022 7.83372ZM12.25 7.36816C12.25 8.6108 11.2427 9.61816 10 9.61816C8.75741 9.61816 7.75005 8.6108 7.75005 7.36816C7.75005 6.12552 8.75741 5.11816 10 5.11816C11.2427 5.11816 12.25 6.12552 12.25 7.36816ZM13.75 7.36816C13.75 9.43923 12.0711 11.1182 10 11.1182C7.92898 11.1182 6.25005 9.43923 6.25005 7.36816C6.25005 5.2971 7.92898 3.61816 10 3.61816C12.0711 3.61816 13.75 5.2971 13.75 7.36816Z" fill="#A5A5AD"/>
</svg>
