<svg width="20" height="10" viewBox="0 0 20 10" fill="none" xmlns="http://www.w3.org/2000/svg">
<path fill-rule="evenodd" clip-rule="evenodd" d="M1.00003 1.36812C0.37741 1.78626 0.377543 1.78646 0.37769 1.78668L0.379087 1.78875L0.382245 1.79342L0.392974 1.80915C0.402075 1.82244 0.415063 1.84127 0.431842 1.86527C0.465396 1.91326 0.514144 1.98197 0.577333 2.06844C0.703655 2.24131 0.888018 2.48561 1.1244 2.77756C1.36569 3.07559 1.66244 3.42482 2.00821 3.79938L0.469788 5.33781L1.53045 6.39847L3.06624 4.86267L3.12799 4.9198C3.67428 5.42294 4.302 5.93937 4.99659 6.40648L3.93293 8.2488L5.23197 8.9988L6.28945 7.16719C7.20214 7.6274 8.19713 7.96601 9.25006 8.07804V9.99313H10.7501V8.07803C11.7303 7.97373 12.6603 7.67306 13.5204 7.26073L14.5239 8.99879L15.823 8.24879L14.8267 6.5233C15.5919 6.02636 16.2798 5.46527 16.8721 4.9198C16.8928 4.90072 16.9134 4.88165 16.9339 4.86258L18.4698 6.39845L19.5304 5.33778L17.9919 3.79929C18.3377 3.42476 18.6344 3.07556 18.8757 2.77756C19.1121 2.48561 19.2964 2.24131 19.4227 2.06844C19.4859 1.98197 19.5347 1.91326 19.5682 1.86527C19.585 1.84127 19.598 1.82244 19.6071 1.80915L19.6178 1.79342L19.621 1.78875L19.6224 1.78668C19.6225 1.78646 19.6227 1.78626 19 1.36812C18.3774 0.949986 18.3775 0.949835 18.3776 0.949707L18.3764 0.951526L18.3696 0.961518C18.3631 0.970935 18.3529 0.985798 18.3389 1.00575C18.311 1.04565 18.2683 1.10584 18.2116 1.18343C18.0982 1.33869 17.9289 1.56314 17.7099 1.83368C17.2709 2.37591 16.6367 3.09734 15.8559 3.81645C14.2675 5.27933 12.1964 6.61812 10 6.61812C7.80367 6.61812 5.73254 5.27933 4.14416 3.81645C3.36337 3.09734 2.72921 2.37591 2.2902 1.83368C2.07116 1.56314 1.90189 1.33869 1.78843 1.18343C1.73173 1.10584 1.68906 1.04565 1.66116 1.00575C1.64721 0.985798 1.63697 0.970935 1.63052 0.961518L1.6237 0.951526L1.62247 0.949707C1.62256 0.949835 1.62266 0.949986 1.00003 1.36812Z" fill="#A5A5AD"/>
</svg>
