<svg width="19" height="21" viewBox="0 0 19 21" fill="none" xmlns="http://www.w3.org/2000/svg">
<path d="M18 9.38235C18 15.0559 11.6344 18.8613 9.92062 19.783C9.65448 19.9262 9.34552 19.9262 9.07938 19.783C7.36558 18.8613 1 15.0559 1 9.38235C1 4.35294 5.11854 1 9.5 1C14.0333 1 18 4.35294 18 9.38235Z" stroke="white"/>
<path d="M15 9.73529C15 13.4437 11.2411 15.9856 9.93826 16.7552C9.66471 16.9168 9.33529 16.9168 9.06174 16.7552C7.75894 15.9856 4 13.4437 4 9.73529C4 6.29412 6.66494 4 9.5 4C12.4333 4 15 6.29412 15 9.73529Z" stroke="white"/>
</svg>
