<svg width="20" height="18" viewBox="0 0 20 18" fill="none" xmlns="http://www.w3.org/2000/svg">
<path fill-rule="evenodd" clip-rule="evenodd" d="M13.9202 11.7988C13.9725 11.5407 14 11.2736 14 11C14 8.79086 12.2091 7 10 7C9.72645 7 9.45931 7.02746 9.20119 7.07977L10.1239 8.00251C11.6822 8.06583 12.9342 9.31779 12.9975 10.8761L13.9202 11.7988ZM7.39311 9.51433C7.14295 9.95234 7 10.4595 7 11C7 12.6569 8.34315 14 10 14C10.5405 14 11.0477 13.857 11.4857 13.6069L12.212 14.3332C11.5784 14.7545 10.8179 15 10 15C7.79086 15 6 13.2091 6 11C6 10.1821 6.24547 9.42156 6.66676 8.78799L7.39311 9.51433Z" fill="#FFF"/>
<path fill-rule="evenodd" clip-rule="evenodd" d="M14.1537 16.2751L13.4193 15.5406C12.3553 16.1196 11.1987 16.5 10 16.5C8.32818 16.5 6.73816 15.7599 5.36714 14.7735C4.00006 13.79 2.89306 12.5918 2.19792 11.7478C1.77356 11.2326 1.72974 11.1435 1.72974 11C1.72974 10.8565 1.77356 10.7674 2.19792 10.2522C2.86721 9.43958 3.9183 8.29863 5.21572 7.33704L4.50139 6.62271C3.16991 7.63072 2.10383 8.79349 1.42604 9.61641L1.36723 9.68758C1.03671 10.087 0.729736 10.4579 0.729736 11C0.729736 11.5421 1.0367 11.913 1.36723 12.3124L1.42604 12.3836C2.15099 13.2638 3.32014 14.5327 4.78312 15.5853C6.24216 16.635 8.03611 17.5 10 17.5C11.5101 17.5 12.9196 16.9886 14.1537 16.2751ZM7.18993 5.06861C8.0698 4.71828 9.01346 4.5 10 4.5C11.9639 4.5 13.7579 5.365 15.2169 6.41472C16.6799 7.46727 17.849 8.73623 18.574 9.61641L18.6328 9.68758C18.9633 10.087 19.2703 10.4579 19.2703 11C19.2703 11.5421 18.9633 11.913 18.6328 12.3124L18.574 12.3836C18.0935 12.9669 17.418 13.721 16.5911 14.4697L15.883 13.7617C16.6787 13.0456 17.3338 12.3164 17.8021 11.7478C18.2265 11.2326 18.2703 11.1435 18.2703 11C18.2703 10.8565 18.2265 10.7674 17.8021 10.2522C17.107 9.4082 16 8.21001 14.6329 7.22646C13.2619 6.24007 11.6718 5.5 10 5.5C9.3056 5.5 8.62531 5.62768 7.96897 5.84765L7.18993 5.06861Z" fill="#fff"/>
<path d="M3 1L19 17" stroke="#fff"/>
</svg>
