<svg width="20" height="18" viewBox="0 0 20 18" fill="none" xmlns="http://www.w3.org/2000/svg">
<path d="M2 5L1.29289 4.29289L0.585786 5L1.29289 5.70711L2 5ZM17 7C17 7.55228 17.4477 8 18 8C18.5523 8 19 7.55228 19 7H17ZM5.29289 0.292893L1.29289 4.29289L2.70711 5.70711L6.70711 1.70711L5.29289 0.292893ZM1.29289 5.70711L5.29289 9.70711L6.70711 8.29289L2.70711 4.29289L1.29289 5.70711ZM2 6H16V4H2V6ZM16 6C16.5523 6 17 6.44772 17 7H19C19 5.34315 17.6569 4 16 4V6Z" fill="#00FF16"/>
<path d="M18 13L18.7071 12.2929L19.4142 13L18.7071 13.7071L18 13ZM3 13L3 14L3 14L3 13ZM1.74845e-07 11C1.26563e-07 10.4477 0.447716 10 1 10C1.55228 10 2 10.4477 2 11L1.74845e-07 11ZM14.7071 8.29289L18.7071 12.2929L17.2929 13.7071L13.2929 9.70711L14.7071 8.29289ZM18.7071 13.7071L14.7071 17.7071L13.2929 16.2929L17.2929 12.2929L18.7071 13.7071ZM18 14L3 14L3 12L18 12L18 14ZM3 14C1.34315 14 3.19692e-07 12.6569 1.74845e-07 11L2 11C2 11.5523 2.44772 12 3 12L3 14Z" fill="#00FF16"/>
</svg>
