<svg width="20" height="20" viewBox="0 0 20 20" fill="none" xmlns="http://www.w3.org/2000/svg">
<path fill-rule="evenodd" clip-rule="evenodd" d="M10 0.5C7.76317 0.5 5.83928 1.83526 4.97989 3.75007C4.89728 3.93416 4.83874 4.06452 4.79362 4.15941C4.77129 4.20638 4.75451 4.23984 4.74168 4.26371C4.73213 4.28147 4.72703 4.28965 4.72588 4.29149C4.72575 4.29171 4.72567 4.29184 4.72564 4.29188C4.65664 4.38826 4.62018 4.41763 4.59892 4.4314C4.57756 4.44522 4.53559 4.46657 4.41833 4.49017C4.38281 4.49732 4.30904 4.5 4 4.5C2.067 4.5 0.5 6.067 0.5 8C0.5 9.933 2.067 11.5 4 11.5H4.67157L5.67157 10.5H4C2.61929 10.5 1.5 9.38071 1.5 8C1.5 6.61929 2.61929 5.5 4 5.5L4.05357 5.50003C4.27958 5.50021 4.46738 5.50035 4.61565 5.47051C4.79642 5.43413 4.97421 5.37969 5.1423 5.27088C5.3104 5.16208 5.43286 5.02216 5.54007 4.87214C5.59798 4.79112 5.64966 4.68782 5.69674 4.58881C5.74715 4.48277 5.81019 4.34231 5.88955 4.1655L5.88958 4.16542L5.89222 4.15954C6.59624 2.59089 8.17127 1.5 10 1.5C11.8287 1.5 13.4038 2.59089 14.1078 4.15954L14.1105 4.16566C14.1898 4.3424 14.2529 4.4828 14.3033 4.58881C14.3503 4.68782 14.402 4.79112 14.4599 4.87214C14.5671 5.02216 14.6896 5.16208 14.8577 5.27088C15.0258 5.37969 15.2036 5.43413 15.3844 5.47051C15.5326 5.50035 15.7204 5.50021 15.9464 5.50003L16 5.5C17.3807 5.5 18.5 6.61929 18.5 8C18.5 9.38071 17.3807 10.5 16 10.5H14.3284L15.3284 11.5H16C17.933 11.5 19.5 9.933 19.5 8C19.5 6.067 17.933 4.5 16 4.5C15.691 4.5 15.6172 4.49732 15.5817 4.49017C15.4644 4.46657 15.4224 4.44522 15.4011 4.4314C15.3798 4.41763 15.3434 4.38826 15.2744 4.29188L15.2741 4.2915C15.273 4.28968 15.2679 4.2815 15.2583 4.26371C15.2455 4.23984 15.2287 4.20638 15.2064 4.15941C15.1613 4.06452 15.1027 3.93416 15.0201 3.75007C14.1607 1.83526 12.2368 0.5 10 0.5Z" fill="#fff"/>
<path d="M10 10L9.64645 9.64645L10 9.29289L10.3536 9.64645L10 10ZM10.5 19C10.5 19.2761 10.2761 19.5 10 19.5C9.72386 19.5 9.5 19.2761 9.5 19L10.5 19ZM5.64645 13.6464L9.64645 9.64645L10.3536 10.3536L6.35355 14.3536L5.64645 13.6464ZM10.3536 9.64645L14.3536 13.6464L13.6464 14.3536L9.64645 10.3536L10.3536 9.64645ZM10.5 10L10.5 19L9.5 19L9.5 10L10.5 10Z" fill="#fff"/>
</svg>
